<svg width="18" height="19" viewBox="10 9 18 19" xmlns="http://www.w3.org/2000/svg" style="vertical-align:middle; margin-right:5px; margin-top:-1px">
  <g fill="#FFF" fill-rule="evenodd">
    <path d="M27.226 17.362l-.769-.412v3.014l.77-.506c1.028-.576 1.028-1.52 0-2.096zM14.096 24.198a.752.752 0 0 1-.756-.745l.017-12.137h3.108l-3.594-2c-.613-.343-1.158-.31-1.5.016-.233.22-.371.579-.371 1.049v16.058c0 .47.138.828.37 1.05.343.326.888.358 1.501.015l6.629-3.306h-5.404z"/><path d="M14.067 13.595h11.65v-1.547l-11.614-.023zM23.267 17.243a.87.87 0 0 1-.336-.067l-1.454 1.433a.836.836 0 0 1 .068.331.855.855 0 0 1-.86.85.855.855 0 0 1-.862-.85c0-.117.025-.23.068-.331l-.592-.585a.869.869 0 0 1-.673 0l-1.453 1.434a.836.836 0 0 1 .068.331.855.855 0 0 1-.86.85.855.855 0 0 1-.862-.85c0-.469.386-.849.861-.849a.87.87 0 0 1 .336.068l1.454-1.434a.836.836 0 0 1-.068-.331c0-.469.385-.85.86-.85.476 0 .861.381.861.85 0 .117-.024.23-.068.331l.593.585a.868.868 0 0 1 .672 0l1.454-1.434a.836.836 0 0 1-.068-.331c0-.469.385-.849.86-.849.476 0 .861.38.861.849a.855.855 0 0 1-.86.849zm-9.188-2.923l.007 8.56c0 .29.24.527.535.527l5.359-.013 5.738-3.336-.007-5.728-11.632-.01z" />
  </g>
</svg>
